<?xml version="1.0" standalone="no"?>
<!DOCTYPE svg PUBLIC "-//W3C//DTD SVG 20010904//EN"
 "http://www.w3.org/TR/2001/REC-SVG-20010904/DTD/svg10.dtd">
<svg version="1.0" xmlns="http://www.w3.org/2000/svg"
 width="512.000000pt" height="512.000000pt" viewBox="0 0 512.000000 512.000000"
 preserveAspectRatio="xMidYMid meet">
<metadata>
Created by potrace 1.14, written by Peter Selinger 2001-2017
</metadata>
<g transform="translate(0.000000,512.000000) scale(0.100000,-0.100000)"
fill="#000000" stroke="none">
<path d="M3019 3918 c-1 -8 -8 -105 -14 -212 -4 -65 -8 -131 -10 -147 -3 -24
7 -43 25 -44 11 0 95 -30 100 -35 31 -33 37 -31 88 22 27 29 86 91 131 138 44
47 81 89 81 93 0 13 -56 60 -113 95 -49 30 -145 69 -192 78 -42 8 -95 15 -96
12z"/>
<path d="M2760 3884 c-8 -3 -49 -22 -90 -42 -55 -27 -98 -59 -159 -119 -75
-74 -82 -84 -68 -98 9 -8 20 -15 26 -15 6 0 11 -4 11 -9 0 -5 9 -13 20 -16 11
-3 27 -13 35 -21 8 -8 61 -46 117 -84 l103 -69 32 33 c17 17 50 41 72 52 22
10 41 21 41 24 0 3 -9 37 -21 75 -25 85 -38 132 -45 165 -3 14 -9 26 -14 28
-5 2 -7 9 -4 16 3 7 -1 26 -7 42 -7 16 -12 32 -11 37 2 8 -14 8 -38 1z"/>
<path d="M3458 3505 c-43 -24 -78 -41 -78 -38 0 3 -7 0 -15 -7 -8 -7 -43 -26
-77 -42 -68 -32 -82 -46 -67 -64 5 -6 11 -32 13 -57 2 -25 7 -51 12 -58 5 -8
3 -9 -6 -4 -9 6 -11 4 -5 -4 4 -7 9 -31 11 -53 6 -55 8 -57 56 -46 24 5 59 11
78 13 19 3 46 7 60 10 25 5 86 15 130 21 66 9 65 7 65 65 0 69 -11 148 -29
214 -13 48 -41 95 -55 94 -9 -1 -51 -20 -93 -44z"/>
<path d="M2332 3409 c-1 -16 -10 -54 -12 -54 -6 0 -3 -98 3 -102 4 -2 4 -10 0
-16 -4 -7 -8 -16 -9 -22 -8 -50 -12 -72 -15 -85 -2 -8 1 -15 6 -15 6 -1 33 -8
60 -17 28 -9 100 -32 160 -51 61 -20 117 -38 126 -42 12 -4 19 1 24 22 5 15
10 35 12 43 3 8 5 23 6 33 1 9 4 17 7 17 3 0 6 31 8 69 2 38 4 85 6 104 3 33
2 36 -38 46 -22 7 -50 13 -61 16 -11 2 -47 11 -80 20 -94 25 -128 34 -171 42
-22 3 -31 1 -32 -8z"/>
<path d="M3645 3070 c-3 -6 -15 -10 -26 -10 -10 0 -19 -4 -19 -10 0 -5 -3 -9
-7 -8 -5 1 -25 -6 -47 -15 -21 -9 -39 -17 -41 -17 -1 0 -46 -20 -99 -45 l-97
-46 31 -55 c17 -31 44 -75 60 -98 33 -47 120 -142 120 -131 0 4 9 -3 20 -16
l19 -24 25 30 c14 17 34 40 46 52 11 12 20 26 20 30 0 4 12 22 28 38 15 17 40
48 56 70 17 22 33 42 36 45 4 3 12 14 18 25 8 16 5 26 -24 60 -56 64 -58 67
-74 99 -16 32 -35 43 -45 26z"/>
<path d="M2226 2994 c-23 -34 -97 -103 -119 -110 -21 -7 -15 -35 14 -73 11
-13 19 -28 19 -33 0 -4 11 -26 25 -48 26 -41 80 -139 99 -177 6 -13 14 -23 17
-23 4 0 33 18 66 39 64 44 155 132 203 199 l30 42 -92 60 c-51 32 -98 64 -105
70 -7 5 -15 10 -17 10 -3 0 -30 16 -60 35 -30 19 -57 35 -59 35 -3 0 -12 -12
-21 -26z"/>
<path d="M3891 2828 c-5 -13 -29 -67 -54 -120 -25 -54 -44 -98 -42 -98 3 0 -7
-20 -20 -44 -37 -67 -34 -81 23 -96 26 -7 51 -16 56 -21 5 -4 15 -5 22 -2 8 3
14 1 14 -5 0 -6 11 -9 25 -7 14 1 28 -1 30 -5 3 -5 14 -6 25 -3 13 3 20 0 20
-8 0 -10 3 -10 11 -2 7 7 20 8 33 4 24 -9 83 -7 93 3 8 8 10 330 3 367 -5 22
-10 24 -60 25 -66 2 -121 12 -134 25 -17 16 -36 10 -45 -13z"/>
<path d="M1966 2823 c-3 -4 -59 -8 -122 -9 -64 -1 -117 -4 -119 -6 -7 -6 -7
-379 -1 -386 8 -7 214 -6 246 2 14 4 39 8 55 10 29 4 65 15 65 21 0 1 -7 21
-15 44 -8 23 -14 42 -14 44 1 3 -17 75 -36 142 -7 28 -19 71 -27 98 -12 46
-18 54 -32 40z"/>
<path d="M1030 2812 c-14 -2 -32 -6 -40 -9 -8 -3 -18 -5 -22 -5 -5 1 -8 -3 -8
-10 0 -6 -3 -8 -7 -5 -8 9 -59 -48 -81 -88 -32 -61 -14 -160 40 -218 26 -27
108 -70 108 -56 0 5 10 5 24 -1 17 -6 27 -5 33 3 7 10 10 245 4 368 -1 26 -5
27 -51 21z"/>
<path d="M1238 2627 c-2 -104 0 -193 3 -199 4 -6 70 -10 160 -11 l154 -1 0 37
c0 20 2 37 5 37 3 0 5 12 4 28 -1 15 -3 27 -4 27 -1 0 -3 15 -4 32 -2 18 -1
31 3 29 3 -2 5 12 3 32 -3 45 -3 47 -1 98 3 82 8 79 -165 79 l-155 0 -3 -188z"/>
<path d="M4292 2612 l0 -199 45 8 c25 5 52 14 59 20 8 6 14 8 14 5 0 -4 14 8
31 26 32 34 64 96 55 105 -3 3 -1 13 4 23 12 23 -6 86 -39 132 -30 43 -79 71
-132 76 l-37 3 0 -199z"/>
<path d="M638 2179 c-10 -6 -8 -30 5 -84 2 -11 8 -40 13 -65 9 -52 11 -59 14
-62 1 -2 3 -14 4 -28 2 -14 5 -32 8 -40 4 -8 12 -50 19 -93 7 -42 16 -82 19
-87 5 -8 1313 -15 1734 -10 16 0 18 5 12 42 -4 23 -11 47 -16 53 -6 7 -7 15
-3 18 3 4 1 7 -6 7 -7 0 -10 4 -7 8 15 24 -147 232 -181 232 -7 0 -13 4 -13 9
0 15 -114 68 -186 86 -62 16 -138 18 -737 19 -368 0 -674 -2 -679 -5z"/>
<path d="M3177 2184 c-1 -1 -25 -4 -54 -8 -29 -3 -80 -16 -115 -29 -66 -24
-178 -92 -178 -109 0 -5 -4 -6 -10 -3 -5 3 -10 2 -10 -2 0 -5 -17 -27 -38 -50
-46 -51 -86 -128 -111 -210 l-19 -63 46 0 c69 -1 1478 -1 1609 0 100 0 111 2
108 18 -1 9 1 27 6 38 4 12 11 41 14 65 4 24 8 46 10 49 2 3 6 21 9 40 3 19
12 67 20 105 8 39 17 83 20 98 2 15 7 31 11 37 3 6 -1 13 -10 17 -13 5 -1302
12 -1308 7z"/>
<path d="M615 1539 c4 -5 3 -9 -2 -9 -4 0 -7 -35 -6 -77 1 -43 2 -89 2 -103
l1 -25 802 0 c525 0 805 3 809 10 3 6 5 55 5 110 l-1 100 -808 2 c-492 1 -805
-2 -802 -8z"/>
<path d="M2388 1537 c-5 -14 -1 -184 4 -207 18 -75 90 -129 168 -125 72 3 73
4 106 33 53 46 67 86 68 192 1 52 0 100 -2 107 -5 16 -339 16 -344 0z"/>
<path d="M2903 1542 c-5 -4 -10 -53 -9 -112 l0 -105 801 1 c441 0 805 3 811 6
7 5 10 95 5 200 -1 15 -63 16 -799 16 -440 0 -803 -3 -809 -6z"/>
</g>
</svg>
