<?xml version="1.0" encoding="UTF-8"?>
<svg version="1.1" xmlns="http://www.w3.org/2000/svg" width="845" height="266">
<path d="M0 0 C0.99 0.81597656 0.99 0.81597656 2 1.6484375 C4.012437 2.90311908 4.012437 2.90311908 6.38671875 1.9765625 C7.24910156 1.53054687 8.11148438 1.08453125 9 0.625 C9.93457031 0.150625 10.86914062 -0.32375 11.83203125 -0.8125 C13.81288477 -1.85095532 15.79206716 -2.89260484 17.76953125 -3.9375 C24.7675282 -7.05148172 31.18989802 -7.73828276 38.75 -7.6875 C39.62889893 -7.68186035 40.50779785 -7.6762207 41.41333008 -7.67041016 C53.50337751 -7.44567568 63.11928165 -4.97405151 72.00390625 3.546875 C79.23218062 11.33349207 81.16522139 19.03861271 81.11352539 29.53637695 C81.11367142 30.31739273 81.11381744 31.09840851 81.1139679 31.90309143 C81.1132737 34.47318339 81.10550446 37.04320202 81.09765625 39.61328125 C81.09579032 41.39975444 81.09436724 43.18622814 81.09336853 44.97270203 C81.08955716 49.66624371 81.07973867 54.35975427 81.06866455 59.05328369 C81.05842075 63.84606505 81.05386455 68.63885146 81.04882812 73.43164062 C81.03811514 82.82944073 81.02105531 92.22721777 81 101.625 C74.45598764 104.37810224 68.2228687 104.69928957 61.4375 102.4375 C58.51687651 100.26575433 58.05579257 99.072951 57 95.625 C56.74171448 92.3686676 56.74171448 92.3686676 56.72875977 88.63500977 C56.72353302 87.95141388 56.71830627 87.26781799 56.71292114 86.56350708 C56.70271638 85.08597153 56.69690691 83.60840038 56.69503975 82.13083076 C56.69136302 79.78886923 56.67460145 77.44732623 56.65428162 75.10545349 C56.59899192 68.44953198 56.56819582 61.79354977 56.54370117 55.13745117 C56.52779328 51.05964724 56.49754322 46.98214213 56.45893669 42.90449333 C56.44731782 41.35484942 56.44135661 39.80515202 56.44125557 38.25546455 C56.44106269 36.08478862 56.42273798 33.91493276 56.40063477 31.74438477 C56.39556412 30.51148209 56.39049347 29.27857941 56.38526917 28.00831604 C55.88440669 23.6098949 54.46030721 20.2433817 51.484375 16.9453125 C44.88701426 12.3984828 37.7349797 12.72842701 30 13.625 C26.41481617 14.57064388 23.22109061 15.7905122 20 17.625 C18.96060272 18.16306023 18.96060272 18.16306023 17.90020752 18.71199036 C15.51696011 21.11129424 15.52878714 22.83814943 15.50231934 26.1386261 C15.51670044 26.88525009 15.53108154 27.63187408 15.54589844 28.40112305 C15.54531433 29.19160034 15.54473022 29.98207764 15.54412842 30.79650879 C15.54691607 33.41035823 15.57803902 36.02306846 15.609375 38.63671875 C15.616835 40.44846473 15.62252907 42.26021878 15.62652588 44.07197571 C15.64180127 48.84138248 15.68109937 53.61030229 15.7253418 58.3795166 C15.76625351 63.24578259 15.78452812 68.11212724 15.8046875 72.97851562 C15.84759187 82.52755775 15.91586616 92.07623839 16 101.625 C9.31270843 103.94852596 2.64635515 105.18772363 -4.0625 102.3125 C-6.80563993 99.92331361 -7.93992045 98.31454658 -8.25828552 94.66059875 C-8.2646981 92.84147224 -8.2646981 92.84147224 -8.27124023 90.9855957 C-8.27646698 90.31525803 -8.28169373 89.64492035 -8.28707886 88.95426941 C-8.29731557 87.49907585 -8.3030987 86.0438457 -8.30496025 84.58861732 C-8.30862696 82.27986776 -8.32536417 79.97154663 -8.34571838 77.66288757 C-8.40108304 71.09898887 -8.43172214 64.53502568 -8.45629883 57.97094727 C-8.47224515 53.95379342 -8.50254402 49.93694022 -8.54106331 45.91994286 C-8.55265822 44.394281 -8.55864317 42.86856518 -8.55874443 41.34285927 C-8.10452642 28.88296828 -8.10452642 28.88296828 -13.41624451 18.08613586 C-18.16765113 13.89010451 -22.34562805 13.37631591 -28.4375 13.25 C-29.75621094 13.20101562 -31.07492187 13.15203125 -32.43359375 13.1015625 C-38.44544651 13.57710949 -38.44544651 13.57710949 -49 18.625 C-49.33 46.015 -49.66 73.405 -50 101.625 C-56.68975553 104.30090221 -62.69774911 104.78368452 -69.5625 102.375 C-72.2624079 100.43660458 -72.88676133 99.70055336 -74 96.625 C-74.19554922 93.93089608 -74.28352875 91.34064288 -74.2746582 88.64697266 C-74.27976913 87.84647995 -74.28488007 87.04598724 -74.29014587 86.22123718 C-74.30403664 83.57710272 -74.30308533 80.9332291 -74.30078125 78.2890625 C-74.30466881 76.44827172 -74.3090036 74.60748184 -74.31376648 72.76669312 C-74.32122783 68.90823459 -74.32093827 65.04986756 -74.31567383 61.19140625 C-74.30988298 56.2528277 -74.32680128 51.31462465 -74.3500185 46.37610817 C-74.36476937 42.5739219 -74.36562563 38.77182575 -74.36250877 34.96961594 C-74.36302143 33.1491967 -74.36824864 31.32877234 -74.37832069 29.50838089 C-74.39069241 26.95927994 -74.38388896 24.41090619 -74.37231445 21.86181641 C-74.37995819 21.11356094 -74.38760193 20.36530548 -74.39547729 19.59437561 C-74.33916193 13.96756937 -72.98453914 10.00166495 -69.37890625 5.68359375 C-63.82235625 0.72452224 -58.01197531 -1.96711414 -51 -4.375 C-50.10925781 -4.69597656 -49.21851563 -5.01695312 -48.30078125 -5.34765625 C-32.90275324 -10.07030393 -13.33317391 -9.4987971 0 0 Z " fill="#CAEFF7" transform="translate(580,144.375)"/>
<path d="M0 0 C1.25952484 -0.00014603 2.51904968 -0.00029205 3.81674194 -0.0004425 C7.2438002 -0.00072748 10.67082292 0.0051205 14.09787297 0.01213145 C17.68930582 0.01841518 21.28073963 0.01897274 24.87217712 0.02015686 C31.66112612 0.02325545 38.45005887 0.03144886 45.23900074 0.04150635 C52.97303828 0.05271337 60.70707662 0.05818947 68.44112027 0.06320179 C84.3395811 0.07363281 100.23802575 0.09120355 116.13647461 0.11352539 C115.98736178 1.8547524 115.83559823 3.59575252 115.68273926 5.33665466 C115.59851463 6.30619803 115.51429001 7.27574141 115.42751312 8.27466488 C115.02895815 12.16226716 114.33108889 15.94921027 113.54272461 19.77368164 C113.31534607 20.90851234 113.31534607 20.90851234 113.08337402 22.06626892 C112.76674918 23.6404384 112.44736354 25.21405505 112.12524414 26.78710938 C111.63131682 29.20123464 111.14693407 31.61713746 110.66381836 34.03344727 C110.35316931 35.57196965 110.04199119 37.11038532 109.73022461 38.64868164 C109.58540649 39.36943375 109.44058838 40.09018585 109.29138184 40.83277893 C108.25264307 45.88118847 108.25264307 45.88118847 107.13647461 48.11352539 C50.37647461 48.11352539 -6.38352539 48.11352539 -64.86352539 48.11352539 C-63.06568939 33.73083742 -56.61876167 21.07203639 -45.26586914 11.74243164 C-31.02007894 2.08309097 -16.82827777 -0.05154011 0 0 Z " fill="#CAEFF7" transform="translate(263.863525390625,168.886474609375)"/>
<path d="M0 0 C16.59498246 -0.04686278 33.18994323 -0.08205847 49.78497601 -0.10362434 C57.49152027 -0.11390695 65.19802326 -0.12790912 72.90454102 -0.15087891 C79.62689376 -0.17090565 86.3492166 -0.18373831 93.07159835 -0.18817699 C96.62618169 -0.19076876 100.18067948 -0.19679652 103.73523521 -0.21146011 C107.71765197 -0.22775326 111.69992301 -0.22797379 115.68237305 -0.22705078 C116.84187973 -0.23424133 118.00138641 -0.24143188 119.19602966 -0.24884033 C137.94081523 -0.20212979 152.89486751 4.07932275 166.99609375 16.80078125 C174.51493479 24.62104577 181 37.09514176 181 48 C124.24 48 67.48 48 9 48 C6.88293186 39.53172746 4.91860865 31.15213284 3.21020508 22.60693359 C2.80851096 20.60512089 2.39755135 18.60534297 1.98632812 16.60546875 C1.72916016 15.32542969 1.47199219 14.04539063 1.20703125 12.7265625 C0.9747583 11.57752441 0.74248535 10.42848633 0.50317383 9.24462891 C0.01520397 6.09804018 -0.03571612 3.17681083 0 0 Z " fill="#CAEFF7" transform="translate(2,169)"/>
<path d="M0 0 C7.67341573 5.97024709 12.50867668 13.57679173 13.92527771 23.24227905 C14.83689296 31.33744891 14.76332812 39.42915609 14.734375 47.5625 C14.73250612 49.11762445 14.73108444 50.6727495 14.73008728 52.22787476 C14.72629912 56.28840813 14.71650115 60.34890479 14.7053833 64.40942383 C14.69508891 68.56591292 14.69057258 72.72240804 14.68554688 76.87890625 C14.67487496 85.01043337 14.6578439 93.14193085 14.63671875 101.2734375 C10.61795887 102.67289845 7.34291739 103.54772597 3.07421875 103.5234375 C2.16542969 103.52859375 1.25664063 103.53375 0.3203125 103.5390625 C-2.76629762 103.23354651 -4.69438079 102.88987638 -7.36328125 101.2734375 C-9.8724422 96.40369178 -10.7384893 92.78598661 -10.74804688 87.23999023 C-10.75341965 86.57560944 -10.75879242 85.91122864 -10.764328 85.22671509 C-10.77404362 83.79723946 -10.77706913 82.36770529 -10.77397156 80.9382 C-10.76946069 78.67157588 -10.78358318 76.40571905 -10.80236816 74.13917542 C-10.8452058 68.5138831 -10.85638773 62.88861037 -10.86859131 57.26318359 C-10.88014366 52.49885226 -10.90376526 47.73487367 -10.94328308 42.97068977 C-10.9568012 40.7449091 -10.95269317 38.51961322 -10.94787598 36.29380798 C-10.95722048 34.92169588 -10.96739027 33.54958906 -10.97851562 32.17749023 C-10.98057007 30.98614975 -10.98262451 29.79480927 -10.98474121 28.56736755 C-11.5312483 23.8118439 -13.16469998 20.50727116 -16.48828125 17.0859375 C-25.49413452 11.40833435 -33.91081103 11.41062039 -44.05078125 13.5859375 C-48.7729872 14.67567733 -51.87310789 16.02835082 -56.36328125 18.2734375 C-56.69328125 45.6634375 -57.02328125 73.0534375 -57.36328125 101.2734375 C-64.05303678 103.94933971 -70.06103036 104.43212202 -76.92578125 102.0234375 C-79.62792586 100.08343624 -80.24983045 99.35215583 -81.36328125 96.2734375 C-81.56396169 93.55477065 -81.65705054 90.93817579 -81.65380859 88.21948242 C-81.66052582 87.41084244 -81.66724304 86.60220245 -81.67416382 85.76905823 C-81.69315234 83.09727827 -81.69706861 80.42574947 -81.69921875 77.75390625 C-81.70564674 75.89309079 -81.7123751 74.03227635 -81.71939087 72.17146301 C-81.73136623 68.27012795 -81.73507149 64.36888144 -81.73388672 60.4675293 C-81.73368367 55.47739388 -81.76097052 50.48782884 -81.79543114 45.49782848 C-81.81771132 41.65356356 -81.82172389 37.80943556 -81.82066727 33.96511269 C-81.82302212 32.12596994 -81.83183917 30.28682336 -81.847332 28.44774437 C-81.86701219 25.86995359 -81.86114615 23.29338829 -81.84912109 20.71557617 C-81.86036011 19.96156525 -81.87159912 19.20755432 -81.88317871 18.43069458 C-81.81871737 12.97016857 -80.42809179 9.80218019 -77.36328125 5.2734375 C-59.38104618 -11.93338291 -19.98673254 -13.82729924 0 0 Z " fill="#CAEFF7" transform="translate(830.36328125,144.7265625)"/>
<path d="M0 0 C52.47 0 104.94 0 159 0 C159 7.59 159 15.18 159 23 C106.53 23 54.06 23 0 23 C0 15.41 0 7.82 0 0 Z " fill="#CAEFF7" transform="translate(223,231)"/>
<path d="M0 0 C52.47 0 104.94 0 159 0 C159 7.59 159 15.18 159 23 C106.53 23 54.06 23 0 23 C0 15.41 0 7.82 0 0 Z " fill="#CAEFF7" transform="translate(0,231)"/>
<path d="M0 0 C1.30710937 -0.03738281 2.61421875 -0.07476562 3.9609375 -0.11328125 C8.15213 0.37375498 9.7296882 1.30332763 12.625 4.3125 C13.68414546 7.48993638 13.74820043 9.72641787 13.74525452 13.06413269 C13.74662918 14.26306656 13.74800385 15.46200043 13.74942017 16.69726562 C13.74582489 18.01428467 13.74222961 19.33130371 13.73852539 20.68823242 C13.73824335 22.0876719 13.73840159 23.48711152 13.7389679 24.8865509 C13.73925521 28.68791784 13.73336915 32.48925332 13.72639394 36.29061294 C13.7201494 40.26245067 13.71955573 44.2342891 13.71836853 48.20613098 C13.71525847 55.72838949 13.70704944 63.2506335 13.69701904 70.77288562 C13.68584783 79.33627273 13.68034491 87.89966053 13.67532361 96.46305311 C13.66486657 114.07954363 13.6472734 131.69602065 13.625 149.3125 C9.93326308 150.31011747 6.52090358 150.54726823 2.6875 150.625 C1.48222656 150.66238281 0.27695312 150.69976562 -0.96484375 150.73828125 C-4.97087952 150.23810038 -6.542599 149.12403616 -9.375 146.3125 C-10.70802502 143.64644996 -10.49786972 141.62971627 -10.49525452 138.64315796 C-10.49662918 137.4371846 -10.49800385 136.23121124 -10.49942017 134.98869324 C-10.49588081 133.64529394 -10.49224599 132.3018949 -10.48852539 130.95849609 C-10.48824344 129.54935203 -10.48840141 128.14020782 -10.4889679 126.73106384 C-10.48925555 122.89864708 -10.48336398 119.06626143 -10.47639394 115.23385191 C-10.47015508 111.2313118 -10.46955618 107.22877103 -10.46836853 103.22622681 C-10.46525679 95.64372791 -10.45704551 88.06124338 -10.44701904 80.47875082 C-10.43585304 71.84767354 -10.43034622 63.21659558 -10.42532361 54.58551288 C-10.41486277 36.82783376 -10.39726636 19.07016804 -10.375 1.3125 C-6.79351219 0.11867073 -3.77551474 0.07046639 0 0 Z " fill="#C9F0F7" transform="translate(703.375,96.6875)"/>
<path d="M0 0 C14.1475958 -0.28015041 27.67690057 5.32952963 38.4375 14.5 C39.7059375 15.7375 39.7059375 15.7375 41 17 C40.42149623 20.53324825 39.20353355 22.14517694 36.6484375 24.609375 C35.96136719 25.28226563 35.27429688 25.95515625 34.56640625 26.6484375 C33.84324219 27.34195312 33.12007813 28.03546875 32.375 28.75 C27.52668248 33.44652857 22.8632796 38.16317749 18.52978516 43.34472656 C17 45 17 45 14 47 C13.5153125 46.66226563 13.030625 46.32453125 12.53125 45.9765625 C7.72804436 42.78058336 3.66000106 41.11178592 -2 40 C-2.14963976 31.03408424 -1.69035336 22.18727734 -1 13.25 C-0.90460938 11.96867188 -0.80921875 10.68734375 -0.7109375 9.3671875 C-0.4778991 6.24447295 -0.24085291 3.12211985 0 0 Z " fill="#CBEFF7" transform="translate(235,0)"/>
<path d="M0 0 C8.42117389 4.31062249 16.27927595 9.32561516 24.1796875 14.51171875 C27.07931634 16.41375581 30.00773043 18.24570862 33 20 C32.59209084 25.04669006 29.89882556 28.08477506 26.6875 31.75 C26.15568115 32.36327148 25.6238623 32.97654297 25.07592773 33.60839844 C18.82880152 40.60165563 11.83623423 46.60650119 3 50 C0.76692755 46.04385828 -1.46072951 42.08469178 -3.6875 38.125 C-4.31333984 37.01640625 -4.93917969 35.9078125 -5.58398438 34.765625 C-9.23863744 28.25995986 -12.74501576 21.71512652 -16 15 C-15.46761719 14.63140869 -14.93523437 14.26281738 -14.38671875 13.88305664 C-8.74743405 9.93599519 -4.39966951 5.26556191 0 0 Z " fill="#CBEFF5" transform="translate(160,87)"/>
<path d="M0 0 C0.495 1.134375 0.99 2.26875 1.5 3.4375 C4.10880926 8.72128396 7.96189169 12.76586701 12 17 C9.24456056 21.99987012 5.71126077 26.34414996 2.1875 30.8125 C-2.27484257 36.4940098 -6.69238707 42.19995448 -11 48 C-22.19313769 42.54905062 -32.88352472 29.73432033 -37 18 C-36.97729492 16.09472656 -36.97729492 16.09472656 -36 14 C-33.66922929 12.64309794 -31.51336019 11.58097115 -29.04296875 10.546875 C-28.34359695 10.24179016 -27.64422516 9.93670532 -26.92366028 9.62237549 C-25.44296713 8.98009049 -23.95910411 8.3450716 -22.47241211 7.71679688 C-20.19981285 6.75520984 -17.93846714 5.77036677 -15.67773438 4.78125 C-14.23758358 4.16005522 -12.79684628 3.54021801 -11.35546875 2.921875 C-10.67929001 2.62819031 -10.00311127 2.33450562 -9.30644226 2.03192139 C-5.9111772 0.60706444 -3.75023946 0 0 0 Z " fill="#CBEFF6" transform="translate(301,82)"/>
<path d="M0 0 C2 1 2 1 3.16088867 4.27880859 C3.58865831 5.73280788 4.00702625 7.18959308 4.41796875 8.6484375 C4.63947098 9.4167691 4.86097321 10.18510071 5.08918762 10.97671509 C5.55614256 12.60477479 6.019059 14.23399734 6.47827148 15.86425781 C7.1835746 18.36110366 7.90628014 20.85243915 8.63085938 23.34375 C9.08179042 24.92417675 9.53169452 26.50489695 9.98046875 28.0859375 C10.19809372 28.83289886 10.41571869 29.57986023 10.63993835 30.34945679 C12.11487631 35.65537107 12.11487631 35.65537107 11 39 C9.07421875 40.24609375 9.07421875 40.24609375 6.6875 41.4375 C3.81024663 42.93531069 1.97489692 44.02578155 -0.3125 46.375 C-0.869375 46.91125 -1.42625 47.4475 -2 48 C-6.05781802 47.6622374 -9.23105608 45.09499694 -12.515625 42.88671875 C-13.13145447 42.47589554 -13.74728394 42.06507233 -14.3817749 41.64179993 C-15.67819689 40.77324246 -16.97244849 39.90143778 -18.26464844 39.02661133 C-20.24794539 37.68888582 -22.24444568 36.37266411 -24.2421875 35.05664062 C-25.5008656 34.2096182 -26.75870825 33.36135269 -28.015625 32.51171875 C-28.9155014 31.92398933 -28.9155014 31.92398933 -29.83355713 31.3243866 C-31.49316406 30.18237305 -31.49316406 30.18237305 -34 28 C-34 22.17654265 -30.92864809 20.01948388 -27 16 C-26.16662109 15.11248047 -26.16662109 15.11248047 -25.31640625 14.20703125 C-18.53645521 7.60828158 -8.92275723 2.97425241 0 0 Z " fill="#CBEFF6" transform="translate(213,2)"/>
<path d="M0 0 C5.01941401 12.08874139 7.22572663 23.86681418 7 37 C0.18859783 38.83957577 -6.65992538 40.02137902 -13.625 41.125 C-14.73101562 41.30675781 -15.83703125 41.48851562 -16.9765625 41.67578125 C-18.0490625 41.84722656 -19.1215625 42.01867187 -20.2265625 42.1953125 C-21.19158691 42.35016113 -22.15661133 42.50500977 -23.15087891 42.66455078 C-26.1263349 43.01487439 -29.00679355 43.05703983 -32 43 C-33.29135303 38.59232396 -33.36180477 34.14441389 -33.62109375 29.58203125 C-33.92538108 26.70541805 -34.38255116 24.08417514 -35.02368164 21.27612305 C-35.2058876 20.47313278 -35.38809357 19.67014252 -35.57582092 18.84281921 C-35.71580002 18.23468887 -35.85577911 17.62655853 -36 17 C-31.1970455 14.57385134 -26.39151582 12.15291158 -21.58349609 9.73681641 C-19.94735559 8.91370938 -18.31193512 8.08916949 -16.67724609 7.26318359 C-14.33096977 6.07795122 -11.98217415 4.8978523 -9.6328125 3.71875 C-8.89942657 3.34689575 -8.16604065 2.9750415 -7.41043091 2.59191895 C-2.22774341 0 -2.22774341 0 0 0 Z " fill="#CCEFF7" transform="translate(290,35)"/>
<path d="M0 0 C0.8184117 2.38048912 1.51793818 4.71260961 2.1640625 7.140625 C2.36099701 7.85982117 2.55793152 8.57901733 2.76083374 9.32000732 C3.17648123 10.84558336 3.58812258 12.37225559 3.99609375 13.89990234 C4.61946155 16.22930392 5.25791403 18.5541712 5.8984375 20.87890625 C6.30039418 22.36173143 6.70146442 23.84479725 7.1015625 25.328125 C7.2921524 26.02101624 7.48274231 26.71390747 7.67910767 27.42779541 C8.63235981 31.03314521 9.21916565 34.26787054 9 38 C0.9191987 40.06978653 -6.81905151 40.23969781 -15.125 40.125 C-19.37375 40.08375 -23.6225 40.0425 -28 40 C-28 27.13 -28 14.26 -28 1 C-17.8125 0.5625 -17.8125 0.5625 -14.62817383 0.43188477 C-13.78794678 0.39377686 -12.94771973 0.35566895 -12.08203125 0.31640625 C-11.22843018 0.27974854 -10.3748291 0.24309082 -9.49536133 0.20532227 C-6.95027345 0.05054951 -6.95027345 0.05054951 -4.30737305 -0.58227539 C-2 -1 -2 -1 0 0 Z " fill="#CAEFF6" transform="translate(136,107)"/>
<path d="M0 0 C12.73265543 2.75259097 25.3764274 5.78481032 38 9 C37.63798315 20.01030547 36.73861328 30.28668264 34 41 C29.29524271 42.50185732 25.77244518 41.27314328 21.29296875 39.69140625 C20.56757401 39.44583481 19.84217926 39.20026337 19.09480286 38.94725037 C16.78835449 38.16355737 14.48804787 37.36332819 12.1875 36.5625 C10.62081918 36.02689231 9.0537653 35.49237455 7.48632812 34.95898438 C3.6531149 33.65191124 -0.17467818 32.32998237 -4 31 C-3.72016746 27.14487939 -3.4240114 23.29117672 -3.125 19.4375 C-3.04636719 18.35146484 -2.96773437 17.26542969 -2.88671875 16.14648438 C-2.44095804 10.50589688 -1.8310872 5.36246966 0 0 Z " fill="#CAEFF6" transform="translate(169,48)"/>
<path d="M0 0 C1.175625 0.28875 2.35125 0.5775 3.5625 0.875 C10.31124749 2.27129258 17.16877648 3.0891702 24 4 C24 16.87 24 29.74 24 43 C4.80898876 43 4.80898876 43 -1.6875 41.1875 C-2.94949219 40.85105469 -4.21148437 40.51460937 -5.51171875 40.16796875 C-8.8714075 39.04305617 -11.88127268 37.67194445 -15 36 C-12.54933568 28.02889185 -9.24006872 20.52991078 -5.8125 12.9375 C-5.24765492 11.67791007 -4.68319889 10.4181456 -4.11914062 9.15820312 C-2.74989682 6.10373617 -1.37676603 3.05108191 0 0 Z " fill="#CBEFF7" transform="translate(321,104)"/>
<path d="M0 0 C10.56 0 21.12 0 32 0 C32 12.87 32 25.74 32 39 C21.44 39 10.88 39 0 39 C0 26.13 0 13.26 0 0 Z " fill="#CBEFF7" transform="translate(62,108)"/>
<path d="M0 0 C11.22 0 22.44 0 34 0 C34.0825 3.83625 34.165 7.6725 34.25 11.625 C34.28641602 12.82334473 34.32283203 14.02168945 34.36035156 15.25634766 C34.4254228 21.50633535 34.26396989 25.29412778 30 30 C24.51608524 34.83106777 21.19460601 35.35024743 13.984375 35.28125 C8.65897925 34.77938024 6.0977955 32.24614624 2.6875 28.375 C0.13490843 24.78246372 -0.12069913 22.93283444 -0.09765625 18.5546875 C-0.09390991 17.1003833 -0.09390991 17.1003833 -0.09008789 15.61669922 C-0.08098389 14.38193848 -0.07187988 13.14717773 -0.0625 11.875 C-0.041875 7.95625 -0.02125 4.0375 0 0 Z " fill="#CBEFF6" transform="translate(174,231)"/>
<path d="M0 0 C0 12.87 0 25.74 0 39 C-11.25407166 39 -11.25407166 39 -17 35 C-21.45503869 30.54496131 -23.05498427 25.83330522 -23.375 19.625 C-23.22461052 14.04179069 -21.39900782 9.52729701 -17.5390625 5.4609375 C-11.49289001 0.21273702 -8.38306618 0 0 0 Z " fill="#CDEEF6" transform="translate(47,108)"/>
<path d="M0 0 C6.92519827 0 10.01952483 0.05025138 14.89453125 4.875 C20.06817945 10.60710717 21.36297855 14.4172768 21.28125 22.140625 C20.73107949 27.73402515 18.53103953 31.54551244 14.5 35.375 C13.675 35.91125 12.85 36.4475 12 37 C11.401875 37.4125 10.80375 37.825 10.1875 38.25 C8 39 8 39 0 39 C0 26.13 0 13.26 0 0 Z " fill="#CBEFF7" transform="translate(360,108)"/>
</svg>
